<?xml version="1.0" encoding="UTF-8" standalone="no" ?>
<!DOCTYPE svg PUBLIC "-//W3C//DTD SVG 1.1//EN" "http://www.w3.org/Graphics/SVG/1.1/DTD/svg11.dtd">
<svg xmlns="http://www.w3.org/2000/svg" xmlns:xlink="http://www.w3.org/1999/xlink" version="1.1" width="1080" height="1080" viewBox="0 0 1080 1080" xml:space="preserve">
<desc>Created with Fabric.js 5.2.4</desc>
<defs>
</defs>
<g transform="matrix(1 0 0 1 540 540)" id="d4cbada5-a9c1-4777-a7c2-b6abc27aeafd"  >
<rect style="stroke: none; stroke-width: 1; stroke-dasharray: none; stroke-linecap: butt; stroke-dashoffset: 0; stroke-linejoin: miter; stroke-miterlimit: 4; fill: rgb(255,255,255); fill-rule: nonzero; opacity: 1; visibility: hidden;" vector-effect="non-scaling-stroke"  x="-540" y="-540" rx="0" ry="0" width="1080" height="1080" />
</g>
<g transform="matrix(1 0 0 1 540 540)" id="3bc2b5a4-6fc2-48fe-88c0-a11e1a211620"  >
</g>
<g transform="matrix(11.91 0 0 12.44 540 540)" id="995aeb11-a13a-4043-b0ec-22c3e1b6054f"  >
<circle style="stroke: rgb(0,0,0); stroke-width: 0; stroke-dasharray: none; stroke-linecap: butt; stroke-dashoffset: 0; stroke-linejoin: miter; stroke-miterlimit: 4; fill: rgb(255,255,255); fill-rule: nonzero; opacity: 1;" vector-effect="non-scaling-stroke"  cx="0" cy="0" r="35" />
</g>
<g transform="matrix(1 0 0 1 540 540)"  >
<path style="stroke: rgb(0,0,0); stroke-width: 0; stroke-dasharray: none; stroke-linecap: butt; stroke-dashoffset: 0; stroke-linejoin: miter; stroke-miterlimit: 4; fill: rgb(43,64,60); fill-rule: nonzero; opacity: 1;" vector-effect="non-scaling-stroke"  transform=" translate(-511.98, -512)" d="M 819 104.8 C 721.9 31.4 600.5 -4.9 478 3.1 C 323.8 13.1 181 94.19999999999999 92.60000000000002 221.9 C 16.5 331.8 -13.3 467.1 9.6 599 C 27.5 702.9 76.4 797.2 151 872 C 239.5 960.7 355 1012.9 480.5 1021 C 570.3 1026.7 663 1007.6 742.8 966.8 C 869 902.401 963.3 788.401 1001.8 653.8 C 1060.4 449.4 988.3 233 819 104.8 z M 687.1 614.961 C 685.49 692.835 678.6460000000001 751.177 656.557 786.82 C 642.379 809.8230000000001 618.1700000000001 835.065 589.7470000000001 851.35 C 522.2560000000001 889.856 395.6010000000001 900.9200000000001 349.9380000000001 839.16 C 317.7660000000001 795.712 340.9410000000001 723.867 408.12200000000007 727.1669999999999 C 446.3500000000001 728.9289999999999 479.83400000000006 770.7739999999999 454.6050000000001 806.286 C 450.33200000000005 812.2479999999999 440.73800000000006 817.4949999999999 426.9770000000001 823.3389999999999 C 418.4170000000001 826.9169999999999 401.8280000000001 832.1239999999999 400.8140000000001 840.3929999999999 C 398.5080000000001 858.9039999999999 445.91300000000007 866.5369999999999 473.46600000000007 863.5009999999999 C 552.7510000000001 854.6899999999998 556.421 773.1589999999999 560.682 696.6899999999998 C 560.8340000000001 692.7679999999998 561.205 683.7439999999998 561.205 683.7439999999998 L 561.205 362.073 L 461.50800000000004 362.073 L 461.50800000000004 683.704 L 335.622 683.704 L 335.601 409.2459999999999 C 337.231 331.35799999999995 344.081 273.01699999999994 366.163 237.34699999999992 C 380.348 214.36999999999992 404.53000000000003 189.12699999999992 432.973 172.8429999999999 C 500.464 134.3499999999999 627.1 123.27299999999991 672.788 185.0329999999999 C 704.953 228.4809999999999 681.771 300.3259999999999 614.591 297.0259999999999 C 576.383 295.2639999999999 542.893 253.4189999999999 568.115 217.9069999999999 C 572.3820000000001 211.9449999999999 581.981 206.68399999999988 595.742 200.8539999999999 C 604.289 197.2759999999999 620.8979999999999 192.0689999999999 621.8979999999999 183.7999999999999 C 624.204 165.3019999999999 576.7869999999999 157.6439999999999 549.2389999999999 160.67799999999988 C 469.9609999999999 169.4899999999999 466.29099999999994 251.0329999999999 462.0369999999999 327.5019999999999 C 461.8789999999999 331.4239999999999 461.5079999999999 340.4349999999999 461.5079999999999 340.4349999999999 L 687.0989999999999 340.4879999999999 L 687.0989999999999 614.961 z" stroke-linecap="round" />
</g>
</svg>