<?xml version="1.0" encoding="utf-8"?>
<!-- Generator: Adobe Illustrator 16.0.0, SVG Export Plug-In . SVG Version: 6.00 Build 0)  -->
<!DOCTYPE svg PUBLIC "-//W3C//DTD SVG 1.1//EN" "http://www.w3.org/Graphics/SVG/1.1/DTD/svg11.dtd">
<svg version="1.1" id="Layer_1" xmlns="http://www.w3.org/2000/svg" xmlns:xlink="http://www.w3.org/1999/xlink" x="0px" y="0px"
	 width="133.25px" height="60.75px" viewBox="0 0 133.25 60.75" enable-background="new 0 0 133.25 60.75" xml:space="preserve">
<g>
	<line fill="none" stroke="#C19265" stroke-miterlimit="10" x1="113.207" y1="7.266" x2="124.935" y2="7.266"/>
	<line fill="none" stroke="#C19265" stroke-miterlimit="10" x1="7.949" y1="7.266" x2="19.677" y2="7.266"/>
	<path fill="#C19265" d="M43.902,6.475c0-1.423-0.246-2.518-0.73-3.293c-0.484-0.773-1.176-1.159-2.06-1.159
		c-0.886,0-1.571,0.386-2.054,1.159c-0.479,0.775-0.723,1.87-0.723,3.293c0,1.42,0.243,2.52,0.723,3.295
		c0.482,0.773,1.168,1.16,2.054,1.16c0.884,0,1.575-0.387,2.06-1.16C43.656,8.994,43.902,7.895,43.902,6.475 M36.294,6.475
		c0-0.721,0.11-1.391,0.344-2.016c0.228-0.621,0.553-1.163,0.975-1.62c0.428-0.455,0.932-0.816,1.518-1.081
		c0.59-0.263,1.251-0.395,1.981-0.395c0.733,0,1.391,0.132,1.979,0.395c0.588,0.265,1.095,0.626,1.512,1.081
		c0.418,0.457,0.741,0.999,0.973,1.62c0.225,0.625,0.339,1.295,0.339,2.016S45.8,7.867,45.576,8.49
		c-0.231,0.625-0.555,1.162-0.973,1.62c-0.417,0.46-0.924,0.819-1.512,1.081c-0.589,0.266-1.246,0.395-1.979,0.395
		c-0.73,0-1.392-0.129-1.981-0.395c-0.586-0.262-1.09-0.621-1.518-1.081c-0.422-0.458-0.747-0.995-0.975-1.62
		C36.405,7.867,36.294,7.195,36.294,6.475"/>
	<path fill="#C19265" d="M53.879,5.221l2.821-3.564h0.95l-3.345,4.221l2.293,3.52c0.121,0.184,0.256,0.369,0.417,0.555
		c0.158,0.184,0.326,0.353,0.496,0.504c0.17,0.15,0.345,0.275,0.524,0.375c0.182,0.097,0.353,0.152,0.518,0.171v0.294h-1.606
		c-0.272,0-0.526-0.049-0.767-0.146s-0.457-0.222-0.656-0.381c-0.201-0.152-0.379-0.328-0.541-0.515
		c-0.158-0.192-0.299-0.384-0.414-0.566L53.093,7.41l-3.082,3.885H49.06l3.594-4.543l-2.071-3.196
		c-0.118-0.185-0.257-0.37-0.42-0.558c-0.159-0.182-0.325-0.353-0.494-0.504c-0.172-0.15-0.345-0.273-0.528-0.371
		c-0.178-0.096-0.35-0.156-0.516-0.178V1.656h1.605c0.273,0,0.529,0.049,0.77,0.146c0.236,0.098,0.455,0.225,0.656,0.375
		c0.197,0.161,0.377,0.334,0.541,0.521c0.158,0.192,0.299,0.38,0.41,0.565L53.879,5.221z"/>
	<path fill="#C19265" d="M90.654,6.475c0-1.423-0.246-2.518-0.732-3.293c-0.485-0.773-1.174-1.159-2.057-1.159
		c-0.893,0-1.572,0.386-2.055,1.159c-0.483,0.775-0.723,1.87-0.723,3.293c0,1.42,0.239,2.52,0.723,3.295
		c0.482,0.773,1.162,1.16,2.055,1.16c0.883,0,1.571-0.387,2.057-1.16C90.408,8.994,90.654,7.895,90.654,6.475 M83.043,6.475
		c0-0.721,0.113-1.391,0.344-2.016c0.229-0.621,0.555-1.163,0.979-1.62c0.424-0.455,0.927-0.816,1.518-1.081
		c0.59-0.263,1.249-0.395,1.982-0.395c0.729,0,1.387,0.132,1.975,0.395c0.593,0.265,1.096,0.626,1.514,1.081
		c0.418,0.457,0.738,0.999,0.974,1.62c0.228,0.625,0.341,1.295,0.341,2.016s-0.113,1.393-0.341,2.016
		c-0.235,0.625-0.556,1.162-0.974,1.62c-0.418,0.46-0.921,0.819-1.514,1.081c-0.588,0.266-1.246,0.395-1.975,0.395
		c-0.733,0-1.393-0.129-1.982-0.395c-0.591-0.262-1.094-0.621-1.518-1.081c-0.424-0.458-0.75-0.995-0.979-1.62
		C83.156,7.867,83.043,7.195,83.043,6.475"/>
	<path fill="#C19265" d="M79.949,2.395c-0.039-0.144-0.1-0.268-0.192-0.372c-0.093-0.109-0.22-0.196-0.378-0.265
		c-0.162-0.068-0.369-0.102-0.623-0.102h-0.808h-2.779h-2.126c-0.26,0-0.463,0.033-0.622,0.102
		c-0.162,0.068-0.288,0.155-0.379,0.265c-0.094,0.104-0.155,0.229-0.188,0.372c-0.035,0.139-0.052,0.283-0.052,0.428v1.24h0.438
		c0-0.65,0.146-1.104,0.45-1.362c0.305-0.257,0.712-0.39,1.229-0.39h1.043v7.086c0,0.438-0.063,0.789-0.187,1.059
		c-0.121,0.269-0.403,0.4-0.842,0.4h-0.147v0.439h4.235v-0.439h-0.144c-0.439,0-0.718-0.132-0.84-0.4
		c-0.122-0.27-0.183-0.621-0.183-1.059V2.311h1.026c0.517,0,0.928,0.133,1.226,0.39c0.307,0.259,0.455,0.712,0.455,1.362h0.437
		v-1.24C79.997,2.678,79.98,2.533,79.949,2.395"/>
	<path fill="#C19265" d="M68.082,7.469c-0.305-0.373-0.79-0.76-1.451-1.148l-1.797-1.064c-0.234-0.135-0.439-0.268-0.625-0.396
		c-0.188-0.123-0.344-0.254-0.475-0.391c-0.133-0.139-0.236-0.287-0.312-0.448c-0.072-0.159-0.106-0.345-0.106-0.546
		c0-0.438,0.148-0.783,0.455-1.037c0.306-0.254,0.719-0.379,1.244-0.379c0.734,0,1.328,0.215,1.783,0.643
		c0.322,0.303,0.568,0.766,0.744,1.37h0.619V3.154c0-0.273-0.096-0.518-0.289-0.74c-0.195-0.217-0.447-0.402-0.76-0.555
		c-0.312-0.15-0.666-0.266-1.058-0.342c-0.397-0.078-0.796-0.115-1.192-0.115c-1.003,0-1.799,0.223-2.387,0.672
		c-0.589,0.447-0.885,1.057-0.885,1.822c0,0.537,0.137,1.009,0.409,1.419c0.271,0.409,0.739,0.808,1.404,1.194l1.794,1.084
		c0.469,0.28,0.834,0.563,1.104,0.838c0.268,0.279,0.401,0.628,0.401,1.043c0,0.469-0.17,0.82-0.503,1.062
		c-0.333,0.234-0.773,0.356-1.324,0.356c-0.813,0-1.457-0.214-1.926-0.646c-0.334-0.305-0.587-0.764-0.758-1.368H61.58v0.916
		c0,0.276,0.095,0.524,0.291,0.741c0.194,0.218,0.447,0.402,0.759,0.555c0.31,0.15,0.661,0.264,1.058,0.34
		c0.396,0.08,0.791,0.119,1.191,0.119c1.177,0,2.084-0.246,2.715-0.732c0.633-0.484,0.952-1.148,0.952-1.984
		C68.545,8.297,68.39,7.842,68.082,7.469"/>
	<path fill="#C19265" d="M33.07,1.338c-0.035-0.141-0.096-0.262-0.189-0.371c-0.096-0.105-0.219-0.193-0.379-0.264
		s-0.373-0.103-0.625-0.103h-6.115v0.44h0.146c0.437,0,0.717,0.133,0.84,0.398c0.123,0.268,0.183,0.621,0.183,1.061v7.617
		c0,0.438-0.06,0.792-0.183,1.057c-0.123,0.268-0.403,0.404-0.84,0.404h-0.146v0.436h1.168h0.002h1.895h0.002h1.168v-0.436h-0.145
		c-0.438,0-0.718-0.137-0.842-0.404c-0.121-0.265-0.182-0.619-0.182-1.057V6.944h3.212V6.285h-3.212V1.26h2.031
		c0.586,0,1.033,0.131,1.351,0.4c0.313,0.268,0.473,0.717,0.473,1.352h0.439V1.771C33.122,1.623,33.103,1.48,33.07,1.338"/>
	<path fill="#C19265" d="M107.51,0.601l-3.063,8.681l-2.666-6.824c-0.163-0.419-0.359-0.755-0.584-1.002
		c-0.223-0.248-0.466-0.436-0.721-0.562c-0.257-0.125-0.524-0.204-0.796-0.24c-0.274-0.031-0.533-0.052-0.789-0.052
		c-0.07,0-0.171,0.008-0.307,0.015c-0.139,0.012-0.229,0.017-0.263,0.017v0.29c0.292,0.039,0.569,0.168,0.825,0.38
		c0.256,0.213,0.497,0.6,0.721,1.155l1.1,2.81l-1.312,3.737l-2.56-6.547c-0.167-0.419-0.365-0.755-0.595-1.002
		c-0.227-0.248-0.469-0.436-0.725-0.562c-0.25-0.125-0.514-0.204-0.785-0.24c-0.272-0.031-0.536-0.052-0.787-0.052
		c-0.07,0-0.179,0.008-0.33,0.015c-0.156,0.012-0.246,0.017-0.287,0.017v0.29c0.294,0.039,0.551,0.168,0.773,0.38
		c0.227,0.213,0.449,0.6,0.672,1.155l3.749,9.572h0.584l1.999-5.727l2.248,5.727h0.585l4.045-11.429H107.51z"/>
</g>
<g>
	<path fill="#FFFFFF" d="M12.759,24.03c-0.423-0.684-0.987-1.183-1.691-1.495c-0.705-0.312-1.44-0.468-2.205-0.468
		c-0.564,0-1.117,0.071-1.661,0.211c-0.543,0.141-1.032,0.353-1.464,0.634c-0.434,0.282-0.781,0.654-1.042,1.117
		c-0.262,0.463-0.393,1.007-0.393,1.631c0,0.483,0.075,0.911,0.227,1.284c0.151,0.373,0.397,0.71,0.74,1.012
		c0.342,0.302,0.805,0.584,1.389,0.846c0.584,0.262,1.299,0.524,2.145,0.785c0.825,0.262,1.625,0.543,2.401,0.846
		c0.775,0.302,1.459,0.685,2.054,1.147c0.594,0.463,1.067,1.042,1.419,1.737c0.352,0.694,0.528,1.565,0.528,2.612
		c0,1.067-0.211,1.993-0.634,2.778s-0.981,1.435-1.676,1.948c-0.695,0.513-1.495,0.896-2.401,1.147
		c-0.906,0.252-1.842,0.377-2.809,0.377c-0.624,0-1.249-0.055-1.873-0.166c-0.624-0.11-1.223-0.281-1.797-0.513
		S2.903,40.968,2.4,40.595c-0.503-0.372-0.936-0.831-1.299-1.374l2.175-1.781c0.463,0.785,1.107,1.379,1.933,1.781
		s1.701,0.604,2.627,0.604c0.544,0,1.092-0.08,1.646-0.241s1.052-0.397,1.495-0.71c0.442-0.312,0.805-0.699,1.087-1.162
		c0.282-0.463,0.423-0.997,0.423-1.602c0-0.664-0.111-1.202-0.333-1.615c-0.222-0.413-0.564-0.77-1.027-1.072
		c-0.463-0.302-1.047-0.574-1.751-0.815c-0.705-0.242-1.53-0.523-2.477-0.846c-0.766-0.241-1.47-0.518-2.114-0.831
		c-0.645-0.312-1.203-0.694-1.676-1.147c-0.474-0.453-0.846-0.997-1.118-1.631s-0.408-1.394-0.408-2.28
		c0-1.027,0.201-1.922,0.604-2.688c0.402-0.765,0.946-1.404,1.631-1.917c0.684-0.514,1.459-0.901,2.326-1.163
		c0.865-0.262,1.771-0.393,2.718-0.393c1.208,0,2.311,0.187,3.307,0.559s1.888,1.022,2.673,1.948L12.759,24.03z"/>
	<path fill="#FFFFFF" d="M22.937,20.255h2.537v9.06H36.89v-9.06h2.537v21.382H36.89v-9.966H25.474v9.966h-2.537V20.255z"/>
	<path fill="#FFFFFF" d="M55.221,20.255h2.386l9.091,21.382h-2.96l-2.174-5.255H50.872l-2.205,5.255h-2.869L55.221,20.255z
		 M56.369,23.517h-0.06l-4.44,10.51h8.729L56.369,23.517z"/>
	<path fill="#FFFFFF" d="M73.07,20.255h2.542v9.242h0.361l9.724-9.242h3.654L78.78,30.01l11.084,11.627h-3.715L75.973,30.765h-0.361
		v10.873H73.07V20.255z"/>
	<path fill="#FFFFFF" d="M95.632,20.255h13.439v2.355H98.169v6.705h10.178v2.356H98.169v7.611h11.446v2.355H95.632V20.255z"/>
	<path fill="#FFFFFF" d="M117.075,20.255h5.466c1.026,0,2.048,0.061,3.065,0.181c1.017,0.121,1.928,0.383,2.733,0.785
		c0.806,0.403,1.46,0.992,1.963,1.767c0.503,0.775,0.755,1.827,0.755,3.156c0,1.57-0.473,2.839-1.42,3.805
		c-0.945,0.967-2.254,1.581-3.926,1.842l6.07,9.846h-3.11l-5.798-9.604h-3.262v9.604h-2.537V20.255z M119.612,29.678h2.264
		c0.705,0,1.436-0.02,2.19-0.061c0.755-0.04,1.45-0.171,2.083-0.393c0.635-0.221,1.158-0.569,1.571-1.042
		c0.412-0.473,0.619-1.152,0.619-2.039c0-0.765-0.151-1.379-0.453-1.842c-0.302-0.463-0.7-0.82-1.192-1.072
		c-0.494-0.251-1.048-0.417-1.662-0.498c-0.613-0.081-1.232-0.121-1.857-0.121h-3.562V29.678z"/>
</g>
<g>
	<path fill="#FFFFFF" d="M35.686,49.674h3.123c0.756,0,1.475,0.086,2.155,0.254c0.681,0.17,1.274,0.443,1.781,0.821
		c0.508,0.378,0.91,0.87,1.208,1.475s0.447,1.339,0.447,2.202c0,0.766-0.145,1.439-0.434,2.021
		c-0.289,0.583-0.679,1.072-1.168,1.469c-0.489,0.395-1.055,0.695-1.695,0.9s-1.312,0.307-2.015,0.307h-3.403V49.674z
		 M37.768,57.202h1.081c0.48,0,0.928-0.049,1.341-0.146c0.414-0.098,0.772-0.26,1.074-0.487c0.303-0.228,0.541-0.524,0.715-0.894
		c0.173-0.369,0.26-0.821,0.26-1.355c0-0.462-0.087-0.865-0.26-1.207c-0.174-0.343-0.407-0.625-0.701-0.848s-0.639-0.389-1.034-0.5
		c-0.396-0.111-0.812-0.168-1.248-0.168h-1.228V57.202z"/>
	<path fill="#FFFFFF" d="M49.311,54.399c0-0.756,0.127-1.441,0.381-2.055c0.253-0.614,0.607-1.137,1.061-1.568
		c0.454-0.432,0.992-0.763,1.615-0.994c0.622-0.23,1.303-0.347,2.042-0.347c0.738,0,1.419,0.116,2.041,0.347
		c0.623,0.231,1.161,0.562,1.615,0.994s0.808,0.954,1.061,1.568c0.254,0.613,0.381,1.299,0.381,2.055
		c0,0.757-0.127,1.441-0.381,2.056c-0.253,0.614-0.606,1.137-1.061,1.567c-0.454,0.432-0.992,0.764-1.615,0.994
		c-0.622,0.232-1.303,0.348-2.041,0.348c-0.739,0-1.42-0.115-2.042-0.348c-0.623-0.23-1.161-0.562-1.615-0.994
		c-0.453-0.431-0.808-0.953-1.061-1.567C49.438,55.84,49.311,55.156,49.311,54.399z M51.473,54.399c0,0.445,0.069,0.853,0.207,1.222
		s0.336,0.689,0.594,0.96c0.258,0.271,0.567,0.483,0.928,0.635s0.763,0.227,1.208,0.227c0.444,0,0.847-0.075,1.207-0.227
		s0.67-0.363,0.928-0.635c0.258-0.271,0.456-0.591,0.594-0.96s0.207-0.776,0.207-1.222c0-0.436-0.069-0.84-0.207-1.214
		s-0.336-0.696-0.594-0.968s-0.567-0.482-0.928-0.634s-0.763-0.228-1.207-0.228c-0.445,0-0.848,0.076-1.208,0.228
		s-0.67,0.362-0.928,0.634s-0.456,0.594-0.594,0.968S51.473,53.963,51.473,54.399z"/>
	<path fill="#FFFFFF" d="M63.884,54.399c0-0.756,0.127-1.441,0.381-2.055c0.253-0.614,0.607-1.137,1.061-1.568
		c0.454-0.432,0.992-0.763,1.615-0.994c0.622-0.23,1.303-0.347,2.042-0.347c0.738,0,1.419,0.116,2.041,0.347
		c0.623,0.231,1.161,0.562,1.615,0.994s0.807,0.954,1.062,1.568c0.255,0.613,0.382,1.299,0.382,2.055
		c0,0.757-0.127,1.441-0.382,2.056c-0.254,0.614-0.607,1.137-1.062,1.567c-0.454,0.432-0.992,0.764-1.615,0.994
		c-0.622,0.232-1.303,0.348-2.041,0.348c-0.739,0-1.42-0.115-2.042-0.348c-0.623-0.23-1.161-0.562-1.615-0.994
		c-0.453-0.431-0.808-0.953-1.061-1.567C64.011,55.84,63.884,55.156,63.884,54.399z M66.046,54.399c0,0.445,0.069,0.853,0.207,1.222
		s0.336,0.689,0.594,0.96c0.258,0.271,0.567,0.483,0.928,0.635s0.763,0.227,1.208,0.227c0.444,0,0.847-0.075,1.207-0.227
		s0.67-0.363,0.928-0.635c0.258-0.271,0.456-0.591,0.594-0.96s0.207-0.776,0.207-1.222c0-0.436-0.069-0.84-0.207-1.214
		s-0.336-0.696-0.594-0.968s-0.567-0.482-0.928-0.634s-0.763-0.228-1.207-0.228c-0.445,0-0.848,0.076-1.208,0.228
		s-0.67,0.362-0.928,0.634s-0.456,0.594-0.594,0.968S66.046,53.963,66.046,54.399z"/>
	<path fill="#FFFFFF" d="M78.7,49.674h3.656c0.48,0,0.937,0.047,1.368,0.141s0.81,0.25,1.134,0.467
		c0.325,0.219,0.583,0.512,0.774,0.881s0.287,0.83,0.287,1.382c0,0.667-0.174,1.234-0.521,1.701
		c-0.347,0.468-0.854,0.763-1.521,0.888l2.402,3.99h-2.496l-1.975-3.777h-1.027v3.777H78.7V49.674z M80.782,53.585h1.228
		c0.187,0,0.385-0.007,0.594-0.021s0.397-0.053,0.567-0.119c0.169-0.067,0.309-0.172,0.42-0.314s0.167-0.342,0.167-0.601
		c0-0.24-0.049-0.431-0.146-0.573c-0.099-0.143-0.223-0.252-0.374-0.327s-0.325-0.127-0.521-0.153
		c-0.195-0.027-0.387-0.041-0.574-0.041h-1.36V53.585z"/>
	<path fill="#FFFFFF" d="M95.756,51.984c-0.17-0.214-0.398-0.372-0.688-0.474c-0.289-0.103-0.562-0.154-0.821-0.154
		c-0.151,0-0.307,0.019-0.467,0.055c-0.16,0.035-0.312,0.091-0.454,0.166c-0.142,0.076-0.258,0.176-0.347,0.301
		s-0.133,0.275-0.133,0.453c0,0.285,0.106,0.503,0.32,0.654c0.213,0.151,0.482,0.28,0.807,0.387c0.325,0.107,0.674,0.214,1.048,0.32
		c0.374,0.107,0.723,0.258,1.048,0.453c0.324,0.196,0.594,0.459,0.808,0.788c0.213,0.329,0.32,0.77,0.32,1.321
		c0,0.525-0.099,0.982-0.294,1.375c-0.196,0.391-0.461,0.716-0.794,0.974c-0.334,0.259-0.721,0.449-1.161,0.573
		c-0.44,0.125-0.905,0.188-1.395,0.188c-0.614,0-1.184-0.094-1.708-0.28c-0.525-0.187-1.015-0.489-1.469-0.907l1.481-1.629
		c0.214,0.285,0.482,0.506,0.808,0.661s0.66,0.233,1.008,0.233c0.169,0,0.34-0.02,0.514-0.061c0.174-0.039,0.329-0.1,0.467-0.18
		s0.249-0.182,0.334-0.307c0.084-0.125,0.127-0.271,0.127-0.44c0-0.284-0.109-0.509-0.327-0.674s-0.492-0.305-0.821-0.421
		c-0.329-0.115-0.685-0.23-1.067-0.347s-0.738-0.271-1.067-0.468c-0.329-0.195-0.603-0.453-0.82-0.773
		c-0.219-0.32-0.327-0.742-0.327-1.268c0-0.508,0.1-0.952,0.3-1.334c0.2-0.383,0.467-0.703,0.801-0.961
		c0.334-0.259,0.719-0.452,1.154-0.581s0.886-0.193,1.348-0.193c0.534,0,1.05,0.075,1.549,0.227
		c0.498,0.151,0.947,0.405,1.348,0.761L95.756,51.984z"/>
</g>
</svg>
